<svg xmlns="http://www.w3.org/2000/svg" width="180" height="180" viewBox="0 0 100 100" fill="none">

  <path d="M42 22h16v21l14 24a7 7 0 0 1-6.1 10.5H34.1A7 7 0 0 1 28 67l14-24V22Z" fill="#B8DCE8" stroke="#5A9AB8" stroke-width="2.2" stroke-linejoin="round"/>
  <path d="M42 22h16" stroke="#5A9AB8" stroke-width="2.2" stroke-linecap="round"/>
  <path d="M34 59h32l5 9a5 5 0 0 1-4.4 7.5H33.4A5 5 0 0 1 29 68l5-9Z" fill="#83BEAC" stroke="#4A9E6E" stroke-width="1.9"/>
  <circle cx="43" cy="65" r="3" fill="#6BBF8E"/>
  <circle cx="54" cy="70" r="2.5" fill="#2E7A52"/>
  <path d="M35 34h30" stroke="#5A9AB8" stroke-width="1.8"/>
  <path d="M63 28c5-4 10-3 12 1" stroke="#4A9E6E" stroke-width="2" stroke-linecap="round"/>
  <circle cx="77" cy="29" r="2.4" fill="#6BBF8E" stroke="#4A9E6E" stroke-width="1.3"/>
</svg>
